<?xml version="1.0" encoding="UTF-8"?>
<!DOCTYPE svg PUBLIC "-//W3C//DTD SVG 1.1//EN" "http://www.w3.org/Graphics/SVG/1.1/DTD/svg11.dtd">
<svg version="1.1" xmlns="http://www.w3.org/2000/svg" xmlns:xlink="http://www.w3.org/1999/xlink" x="0" y="0" width="66.1" height="24.7" viewBox="0, 0, 66.1, 24.7">
  <g id="レイヤー_1">
    <g>
      <g>
        <path d="M7.284,13.461 L5.418,13.461 L5.418,16.307 Q5.418,16.917 5.13,17.233 Q4.842,17.548 4.403,17.548 Q3.944,17.548 3.663,17.236 Q3.382,16.924 3.382,16.321 L3.382,8.571 Q3.382,7.899 3.69,7.611 Q3.999,7.323 4.671,7.323 L7.284,7.323 Q8.443,7.323 9.067,7.502 Q9.684,7.673 10.133,8.071 Q10.582,8.469 10.815,9.045 Q11.049,9.621 11.049,10.341 Q11.049,11.877 10.102,12.669 Q9.156,13.461 7.284,13.461 z M6.79,8.853 L5.418,8.853 L5.418,11.925 L6.79,11.925 Q7.51,11.925 7.993,11.774 Q8.477,11.623 8.731,11.28 Q8.984,10.937 8.984,10.382 Q8.984,9.717 8.593,9.298 Q8.155,8.853 6.79,8.853 z" fill="#000000"/>
        <path d="M7.284,13.461 L5.418,13.461 L5.418,16.307 Q5.418,16.917 5.13,17.233 Q4.842,17.548 4.403,17.548 Q3.944,17.548 3.663,17.236 Q3.382,16.924 3.382,16.321 L3.382,8.571 Q3.382,7.899 3.69,7.611 Q3.999,7.323 4.671,7.323 L7.284,7.323 Q8.443,7.323 9.067,7.502 Q9.684,7.673 10.133,8.071 Q10.582,8.469 10.815,9.045 Q11.049,9.621 11.049,10.341 Q11.049,11.877 10.102,12.669 Q9.156,13.461 7.284,13.461 z M6.79,8.853 L5.418,8.853 L5.418,11.925 L6.79,11.925 Q7.51,11.925 7.993,11.774 Q8.477,11.623 8.731,11.28 Q8.984,10.937 8.984,10.382 Q8.984,9.717 8.593,9.298 Q8.155,8.853 6.79,8.853 z" fill-opacity="0" stroke="#FFFFFF" stroke-width="6"/>
      </g>
      <g>
        <path d="M16.231,16.492 Q15.552,17.02 14.917,17.284 Q14.283,17.548 13.494,17.548 Q12.774,17.548 12.229,17.263 Q11.684,16.979 11.389,16.492 Q11.094,16.005 11.094,15.436 Q11.094,14.668 11.581,14.126 Q12.068,13.584 12.918,13.399 Q13.097,13.358 13.803,13.214 Q14.509,13.07 15.013,12.95 Q15.517,12.83 16.107,12.659 Q16.073,11.918 15.809,11.572 Q15.545,11.225 14.715,11.225 Q14.002,11.225 13.642,11.424 Q13.282,11.623 13.025,12.021 Q12.767,12.419 12.661,12.545 Q12.555,12.672 12.205,12.672 Q11.89,12.672 11.66,12.47 Q11.43,12.268 11.43,11.952 Q11.43,11.459 11.78,10.992 Q12.13,10.526 12.87,10.224 Q13.611,9.922 14.715,9.922 Q15.949,9.922 16.656,10.214 Q17.362,10.505 17.654,11.136 Q17.945,11.767 17.945,12.809 Q17.945,13.468 17.942,13.927 Q17.938,14.387 17.931,14.949 Q17.931,15.477 18.106,16.05 Q18.281,16.622 18.281,16.787 Q18.281,17.075 18.01,17.311 Q17.739,17.548 17.396,17.548 Q17.108,17.548 16.827,17.277 Q16.546,17.006 16.231,16.492 z M16.107,13.783 Q15.696,13.934 14.91,14.102 Q14.125,14.27 13.824,14.349 Q13.522,14.428 13.248,14.658 Q12.973,14.887 12.973,15.299 Q12.973,15.724 13.296,16.022 Q13.618,16.321 14.139,16.321 Q14.694,16.321 15.164,16.077 Q15.634,15.834 15.853,15.45 Q16.107,15.024 16.107,14.051 z" fill="#000000"/>
        <path d="M16.231,16.492 Q15.552,17.02 14.917,17.284 Q14.283,17.548 13.494,17.548 Q12.774,17.548 12.229,17.263 Q11.684,16.979 11.389,16.492 Q11.094,16.005 11.094,15.436 Q11.094,14.668 11.581,14.126 Q12.068,13.584 12.918,13.399 Q13.097,13.358 13.803,13.214 Q14.509,13.07 15.013,12.95 Q15.517,12.83 16.107,12.659 Q16.073,11.918 15.809,11.572 Q15.545,11.225 14.715,11.225 Q14.002,11.225 13.642,11.424 Q13.282,11.623 13.025,12.021 Q12.767,12.419 12.661,12.545 Q12.555,12.672 12.205,12.672 Q11.89,12.672 11.66,12.47 Q11.43,12.268 11.43,11.952 Q11.43,11.459 11.78,10.992 Q12.13,10.526 12.87,10.224 Q13.611,9.922 14.715,9.922 Q15.949,9.922 16.656,10.214 Q17.362,10.505 17.654,11.136 Q17.945,11.767 17.945,12.809 Q17.945,13.468 17.942,13.927 Q17.938,14.387 17.931,14.949 Q17.931,15.477 18.106,16.05 Q18.281,16.622 18.281,16.787 Q18.281,17.075 18.01,17.311 Q17.739,17.548 17.396,17.548 Q17.108,17.548 16.827,17.277 Q16.546,17.006 16.231,16.492 z M16.107,13.783 Q15.696,13.934 14.91,14.102 Q14.125,14.27 13.824,14.349 Q13.522,14.428 13.248,14.658 Q12.973,14.887 12.973,15.299 Q12.973,15.724 13.296,16.022 Q13.618,16.321 14.139,16.321 Q14.694,16.321 15.164,16.077 Q15.634,15.834 15.853,15.45 Q16.107,15.024 16.107,14.051 z" fill-opacity="0" stroke="#FFFFFF" stroke-width="6"/>
      </g>
      <g>
        <path d="M27.029,14.359 Q27.029,15.271 26.559,15.998 Q26.09,16.725 25.184,17.137 Q24.279,17.548 23.038,17.548 Q21.55,17.548 20.583,16.986 Q19.897,16.581 19.469,15.906 Q19.04,15.23 19.04,14.592 Q19.04,14.222 19.297,13.958 Q19.554,13.694 19.952,13.694 Q20.274,13.694 20.497,13.9 Q20.72,14.106 20.878,14.51 Q21.07,14.99 21.293,15.312 Q21.516,15.635 21.92,15.844 Q22.325,16.053 22.983,16.053 Q23.888,16.053 24.454,15.631 Q25.02,15.21 25.02,14.579 Q25.02,14.078 24.715,13.766 Q24.409,13.454 23.926,13.289 Q23.442,13.125 22.633,12.94 Q21.55,12.686 20.819,12.347 Q20.089,12.007 19.661,11.421 Q19.232,10.834 19.232,9.964 Q19.232,9.134 19.685,8.489 Q20.137,7.845 20.994,7.498 Q21.852,7.152 23.01,7.152 Q23.936,7.152 24.612,7.382 Q25.287,7.611 25.733,7.992 Q26.179,8.373 26.384,8.791 Q26.59,9.209 26.59,9.607 Q26.59,9.97 26.333,10.262 Q26.076,10.553 25.692,10.553 Q25.342,10.553 25.16,10.378 Q24.979,10.204 24.766,9.806 Q24.492,9.237 24.108,8.918 Q23.724,8.599 22.873,8.599 Q22.085,8.599 21.601,8.945 Q21.118,9.292 21.118,9.778 Q21.118,10.08 21.282,10.3 Q21.447,10.519 21.735,10.677 Q22.023,10.834 22.318,10.924 Q22.613,11.013 23.292,11.184 Q24.142,11.383 24.831,11.623 Q25.52,11.863 26.004,12.206 Q26.487,12.549 26.758,13.073 Q27.029,13.598 27.029,14.359 z" fill="#000000"/>
        <path d="M27.029,14.359 Q27.029,15.271 26.559,15.998 Q26.09,16.725 25.184,17.137 Q24.279,17.548 23.038,17.548 Q21.55,17.548 20.583,16.986 Q19.897,16.581 19.469,15.906 Q19.04,15.23 19.04,14.592 Q19.04,14.222 19.297,13.958 Q19.554,13.694 19.952,13.694 Q20.274,13.694 20.497,13.9 Q20.72,14.106 20.878,14.51 Q21.07,14.99 21.293,15.312 Q21.516,15.635 21.92,15.844 Q22.325,16.053 22.983,16.053 Q23.888,16.053 24.454,15.631 Q25.02,15.21 25.02,14.579 Q25.02,14.078 24.715,13.766 Q24.409,13.454 23.926,13.289 Q23.442,13.125 22.633,12.94 Q21.55,12.686 20.819,12.347 Q20.089,12.007 19.661,11.421 Q19.232,10.834 19.232,9.964 Q19.232,9.134 19.685,8.489 Q20.137,7.845 20.994,7.498 Q21.852,7.152 23.01,7.152 Q23.936,7.152 24.612,7.382 Q25.287,7.611 25.733,7.992 Q26.179,8.373 26.384,8.791 Q26.59,9.209 26.59,9.607 Q26.59,9.97 26.333,10.262 Q26.076,10.553 25.692,10.553 Q25.342,10.553 25.16,10.378 Q24.979,10.204 24.766,9.806 Q24.492,9.237 24.108,8.918 Q23.724,8.599 22.873,8.599 Q22.085,8.599 21.601,8.945 Q21.118,9.292 21.118,9.778 Q21.118,10.08 21.282,10.3 Q21.447,10.519 21.735,10.677 Q22.023,10.834 22.318,10.924 Q22.613,11.013 23.292,11.184 Q24.142,11.383 24.831,11.623 Q25.52,11.863 26.004,12.206 Q26.487,12.549 26.758,13.073 Q27.029,13.598 27.029,14.359 z" fill-opacity="0" stroke="#FFFFFF" stroke-width="6"/>
      </g>
      <g>
        <path d="M35.05,13.742 Q35.05,14.579 34.79,15.285 Q34.529,15.991 34.035,16.499 Q33.541,17.006 32.856,17.277 Q32.17,17.548 31.313,17.548 Q30.462,17.548 29.783,17.274 Q29.105,16.999 28.607,16.489 Q28.11,15.978 27.853,15.282 Q27.596,14.586 27.596,13.742 Q27.596,12.892 27.857,12.185 Q28.117,11.479 28.604,10.978 Q29.091,10.478 29.783,10.207 Q30.476,9.936 31.313,9.936 Q32.163,9.936 32.856,10.21 Q33.548,10.485 34.042,10.992 Q34.536,11.5 34.793,12.199 Q35.05,12.899 35.05,13.742 z M33.171,13.742 Q33.171,12.597 32.667,11.959 Q32.163,11.321 31.313,11.321 Q30.764,11.321 30.346,11.606 Q29.928,11.891 29.701,12.446 Q29.475,13.001 29.475,13.742 Q29.475,14.476 29.698,15.024 Q29.921,15.573 30.336,15.865 Q30.75,16.156 31.313,16.156 Q32.163,16.156 32.667,15.515 Q33.171,14.874 33.171,13.742 z" fill="#000000"/>
        <path d="M35.05,13.742 Q35.05,14.579 34.79,15.285 Q34.529,15.991 34.035,16.499 Q33.541,17.006 32.856,17.277 Q32.17,17.548 31.313,17.548 Q30.462,17.548 29.783,17.274 Q29.105,16.999 28.607,16.489 Q28.11,15.978 27.853,15.282 Q27.596,14.586 27.596,13.742 Q27.596,12.892 27.857,12.185 Q28.117,11.479 28.604,10.978 Q29.091,10.478 29.783,10.207 Q30.476,9.936 31.313,9.936 Q32.163,9.936 32.856,10.21 Q33.548,10.485 34.042,10.992 Q34.536,11.5 34.793,12.199 Q35.05,12.899 35.05,13.742 z M33.171,13.742 Q33.171,12.597 32.667,11.959 Q32.163,11.321 31.313,11.321 Q30.764,11.321 30.346,11.606 Q29.928,11.891 29.701,12.446 Q29.475,13.001 29.475,13.742 Q29.475,14.476 29.698,15.024 Q29.921,15.573 30.336,15.865 Q30.75,16.156 31.313,16.156 Q32.163,16.156 32.667,15.515 Q33.171,14.874 33.171,13.742 z" fill-opacity="0" stroke="#FFFFFF" stroke-width="6"/>
      </g>
      <g>
        <path d="M38.806,13.077 L38.093,13.077 L38.093,16.307 Q38.093,16.945 37.811,17.246 Q37.53,17.548 37.078,17.548 Q36.591,17.548 36.323,17.233 Q36.056,16.917 36.056,16.307 L36.056,8.571 Q36.056,7.913 36.351,7.618 Q36.646,7.323 37.304,7.323 L40.616,7.323 Q41.302,7.323 41.789,7.382 Q42.276,7.44 42.667,7.618 Q43.14,7.817 43.503,8.187 Q43.867,8.558 44.055,9.048 Q44.244,9.538 44.244,10.087 Q44.244,11.212 43.61,11.884 Q42.975,12.556 41.686,12.837 Q42.228,13.125 42.722,13.687 Q43.215,14.25 43.603,14.884 Q43.99,15.518 44.206,16.029 Q44.422,16.54 44.422,16.732 Q44.422,16.931 44.295,17.126 Q44.168,17.322 43.949,17.435 Q43.73,17.548 43.442,17.548 Q43.099,17.548 42.866,17.387 Q42.632,17.226 42.464,16.979 Q42.296,16.732 42.008,16.252 L41.192,14.894 Q40.753,14.147 40.407,13.756 Q40.061,13.365 39.704,13.221 Q39.348,13.077 38.806,13.077 z M39.972,8.853 L38.093,8.853 L38.093,11.616 L39.917,11.616 Q40.651,11.616 41.151,11.489 Q41.652,11.363 41.916,11.057 Q42.18,10.752 42.18,10.217 Q42.18,9.799 41.967,9.48 Q41.755,9.161 41.377,9.003 Q41.021,8.853 39.972,8.853 z" fill="#000000"/>
        <path d="M38.806,13.077 L38.093,13.077 L38.093,16.307 Q38.093,16.945 37.811,17.246 Q37.53,17.548 37.078,17.548 Q36.591,17.548 36.323,17.233 Q36.056,16.917 36.056,16.307 L36.056,8.571 Q36.056,7.913 36.351,7.618 Q36.646,7.323 37.304,7.323 L40.616,7.323 Q41.302,7.323 41.789,7.382 Q42.276,7.44 42.667,7.618 Q43.14,7.817 43.503,8.187 Q43.867,8.558 44.055,9.048 Q44.244,9.538 44.244,10.087 Q44.244,11.212 43.61,11.884 Q42.975,12.556 41.686,12.837 Q42.228,13.125 42.722,13.687 Q43.215,14.25 43.603,14.884 Q43.99,15.518 44.206,16.029 Q44.422,16.54 44.422,16.732 Q44.422,16.931 44.295,17.126 Q44.168,17.322 43.949,17.435 Q43.73,17.548 43.442,17.548 Q43.099,17.548 42.866,17.387 Q42.632,17.226 42.464,16.979 Q42.296,16.732 42.008,16.252 L41.192,14.894 Q40.753,14.147 40.407,13.756 Q40.061,13.365 39.704,13.221 Q39.348,13.077 38.806,13.077 z M39.972,8.853 L38.093,8.853 L38.093,11.616 L39.917,11.616 Q40.651,11.616 41.151,11.489 Q41.652,11.363 41.916,11.057 Q42.18,10.752 42.18,10.217 Q42.18,9.799 41.967,9.48 Q41.755,9.161 41.377,9.003 Q41.021,8.853 39.972,8.853 z" fill-opacity="0" stroke="#FFFFFF" stroke-width="6"/>
      </g>
      <g>
        <path d="M47.328,10.999 L47.328,16.41 Q47.328,16.972 47.06,17.26 Q46.793,17.548 46.381,17.548 Q45.97,17.548 45.713,17.253 Q45.455,16.958 45.455,16.41 L45.455,11.054 Q45.455,10.498 45.713,10.217 Q45.97,9.936 46.381,9.936 Q46.793,9.936 47.06,10.217 Q47.328,10.498 47.328,10.999 z M46.402,9.065 Q46.011,9.065 45.733,8.825 Q45.455,8.585 45.455,8.146 Q45.455,7.749 45.74,7.491 Q46.025,7.234 46.402,7.234 Q46.765,7.234 47.046,7.467 Q47.328,7.701 47.328,8.146 Q47.328,8.578 47.053,8.822 Q46.779,9.065 46.402,9.065 z" fill="#000000"/>
        <path d="M47.328,10.999 L47.328,16.41 Q47.328,16.972 47.06,17.26 Q46.793,17.548 46.381,17.548 Q45.97,17.548 45.713,17.253 Q45.455,16.958 45.455,16.41 L45.455,11.054 Q45.455,10.498 45.713,10.217 Q45.97,9.936 46.381,9.936 Q46.793,9.936 47.06,10.217 Q47.328,10.498 47.328,10.999 z M46.402,9.065 Q46.011,9.065 45.733,8.825 Q45.455,8.585 45.455,8.146 Q45.455,7.749 45.74,7.491 Q46.025,7.234 46.402,7.234 Q46.765,7.234 47.046,7.467 Q47.328,7.701 47.328,8.146 Q47.328,8.578 47.053,8.822 Q46.779,9.065 46.402,9.065 z" fill-opacity="0" stroke="#FFFFFF" stroke-width="6"/>
      </g>
      <g>
        <path d="M55.39,15.23 Q55.39,15.58 55.181,15.978 Q54.971,16.375 54.543,16.735 Q54.114,17.095 53.463,17.315 Q52.811,17.534 51.995,17.534 Q50.26,17.534 49.287,16.523 Q48.313,15.511 48.313,13.811 Q48.313,12.659 48.758,11.774 Q49.204,10.889 50.048,10.406 Q50.891,9.922 52.064,9.922 Q52.791,9.922 53.398,10.135 Q54.005,10.348 54.426,10.684 Q54.848,11.02 55.071,11.4 Q55.294,11.781 55.294,12.11 Q55.294,12.446 55.043,12.679 Q54.793,12.912 54.437,12.912 Q54.203,12.912 54.049,12.792 Q53.895,12.672 53.703,12.405 Q53.36,11.884 52.986,11.623 Q52.612,11.363 52.036,11.363 Q51.207,11.363 50.699,12.011 Q50.192,12.659 50.192,13.783 Q50.192,14.311 50.322,14.754 Q50.452,15.196 50.699,15.508 Q50.946,15.82 51.296,15.981 Q51.646,16.142 52.064,16.142 Q52.626,16.142 53.027,15.882 Q53.429,15.621 53.737,15.086 Q53.909,14.771 54.107,14.592 Q54.306,14.414 54.594,14.414 Q54.937,14.414 55.163,14.675 Q55.39,14.935 55.39,15.23 z" fill="#000000"/>
        <path d="M55.39,15.23 Q55.39,15.58 55.181,15.978 Q54.971,16.375 54.543,16.735 Q54.114,17.095 53.463,17.315 Q52.811,17.534 51.995,17.534 Q50.26,17.534 49.287,16.523 Q48.313,15.511 48.313,13.811 Q48.313,12.659 48.758,11.774 Q49.204,10.889 50.048,10.406 Q50.891,9.922 52.064,9.922 Q52.791,9.922 53.398,10.135 Q54.005,10.348 54.426,10.684 Q54.848,11.02 55.071,11.4 Q55.294,11.781 55.294,12.11 Q55.294,12.446 55.043,12.679 Q54.793,12.912 54.437,12.912 Q54.203,12.912 54.049,12.792 Q53.895,12.672 53.703,12.405 Q53.36,11.884 52.986,11.623 Q52.612,11.363 52.036,11.363 Q51.207,11.363 50.699,12.011 Q50.192,12.659 50.192,13.783 Q50.192,14.311 50.322,14.754 Q50.452,15.196 50.699,15.508 Q50.946,15.82 51.296,15.981 Q51.646,16.142 52.064,16.142 Q52.626,16.142 53.027,15.882 Q53.429,15.621 53.737,15.086 Q53.909,14.771 54.107,14.592 Q54.306,14.414 54.594,14.414 Q54.937,14.414 55.163,14.675 Q55.39,14.935 55.39,15.23 z" fill-opacity="0" stroke="#FFFFFF" stroke-width="6"/>
      </g>
      <g>
        <path d="M57.918,8.29 L57.918,11.068 Q58.275,10.656 58.614,10.416 Q58.953,10.176 59.365,10.056 Q59.776,9.936 60.25,9.936 Q60.963,9.936 61.515,10.238 Q62.067,10.54 62.382,11.116 Q62.581,11.452 62.65,11.867 Q62.718,12.281 62.718,12.823 L62.718,16.41 Q62.718,16.972 62.461,17.26 Q62.204,17.548 61.779,17.548 Q60.853,17.548 60.853,16.41 L60.853,13.248 Q60.853,12.35 60.586,11.867 Q60.318,11.383 59.571,11.383 Q59.07,11.383 58.669,11.668 Q58.268,11.952 58.069,12.446 Q57.918,12.864 57.918,13.934 L57.918,16.41 Q57.918,16.965 57.668,17.257 Q57.417,17.548 56.972,17.548 Q56.046,17.548 56.046,16.41 L56.046,8.29 Q56.046,7.721 56.289,7.437 Q56.533,7.152 56.972,7.152 Q57.417,7.152 57.668,7.44 Q57.918,7.728 57.918,8.29 z" fill="#000000"/>
        <path d="M57.918,8.29 L57.918,11.068 Q58.275,10.656 58.614,10.416 Q58.953,10.176 59.365,10.056 Q59.776,9.936 60.25,9.936 Q60.963,9.936 61.515,10.238 Q62.067,10.54 62.382,11.116 Q62.581,11.452 62.65,11.867 Q62.718,12.281 62.718,12.823 L62.718,16.41 Q62.718,16.972 62.461,17.26 Q62.204,17.548 61.779,17.548 Q60.853,17.548 60.853,16.41 L60.853,13.248 Q60.853,12.35 60.586,11.867 Q60.318,11.383 59.571,11.383 Q59.07,11.383 58.669,11.668 Q58.268,11.952 58.069,12.446 Q57.918,12.864 57.918,13.934 L57.918,16.41 Q57.918,16.965 57.668,17.257 Q57.417,17.548 56.972,17.548 Q56.046,17.548 56.046,16.41 L56.046,8.29 Q56.046,7.721 56.289,7.437 Q56.533,7.152 56.972,7.152 Q57.417,7.152 57.668,7.44 Q57.918,7.728 57.918,8.29 z" fill-opacity="0" stroke="#FFFFFF" stroke-width="6"/>
      </g>
    </g>
    <g>
      <g>
        <path d="M8.087,13.426 L6.28,13.426 L6.28,16.183 Q6.28,16.775 6.001,17.08 Q5.722,17.386 5.297,17.386 Q4.852,17.386 4.58,17.084 Q4.307,16.781 4.307,16.197 L4.307,8.689 Q4.307,8.038 4.606,7.759 Q4.905,7.48 5.556,7.48 L8.087,7.48 Q9.21,7.48 9.815,7.653 Q10.413,7.819 10.848,8.204 Q11.283,8.59 11.509,9.148 Q11.735,9.706 11.735,10.403 Q11.735,11.892 10.818,12.659 Q9.901,13.426 8.087,13.426 z M7.609,8.962 L6.28,8.962 L6.28,11.938 L7.609,11.938 Q8.307,11.938 8.775,11.792 Q9.243,11.646 9.489,11.314 Q9.735,10.981 9.735,10.443 Q9.735,9.799 9.356,9.394 Q8.931,8.962 7.609,8.962 z" fill="#000000"/>
        <path d="M8.087,13.426 L6.28,13.426 L6.28,16.183 Q6.28,16.775 6.001,17.08 Q5.722,17.386 5.297,17.386 Q4.852,17.386 4.58,17.084 Q4.307,16.781 4.307,16.197 L4.307,8.689 Q4.307,8.038 4.606,7.759 Q4.905,7.48 5.556,7.48 L8.087,7.48 Q9.21,7.48 9.815,7.653 Q10.413,7.819 10.848,8.204 Q11.283,8.59 11.509,9.148 Q11.735,9.706 11.735,10.403 Q11.735,11.892 10.818,12.659 Q9.901,13.426 8.087,13.426 z M7.609,8.962 L6.28,8.962 L6.28,11.938 L7.609,11.938 Q8.307,11.938 8.775,11.792 Q9.243,11.646 9.489,11.314 Q9.735,10.981 9.735,10.443 Q9.735,9.799 9.356,9.394 Q8.931,8.962 7.609,8.962 z" fill-opacity="0" stroke="#3FCA00" stroke-width="4"/>
      </g>
      <g>
        <path d="M16.755,16.363 Q16.097,16.874 15.483,17.13 Q14.868,17.386 14.104,17.386 Q13.407,17.386 12.879,17.11 Q12.35,16.834 12.065,16.363 Q11.779,15.891 11.779,15.34 Q11.779,14.596 12.251,14.071 Q12.722,13.546 13.546,13.366 Q13.719,13.327 14.403,13.187 Q15.088,13.048 15.576,12.931 Q16.064,12.815 16.636,12.649 Q16.602,11.931 16.347,11.596 Q16.091,11.26 15.287,11.26 Q14.596,11.26 14.247,11.453 Q13.898,11.646 13.649,12.031 Q13.4,12.416 13.297,12.539 Q13.194,12.662 12.855,12.662 Q12.55,12.662 12.327,12.466 Q12.105,12.27 12.105,11.965 Q12.105,11.486 12.443,11.035 Q12.782,10.583 13.5,10.29 Q14.217,9.998 15.287,9.998 Q16.483,9.998 17.167,10.28 Q17.851,10.563 18.134,11.174 Q18.416,11.785 18.416,12.795 Q18.416,13.433 18.413,13.878 Q18.41,14.323 18.403,14.868 Q18.403,15.38 18.572,15.934 Q18.742,16.489 18.742,16.648 Q18.742,16.928 18.479,17.157 Q18.217,17.386 17.885,17.386 Q17.606,17.386 17.333,17.123 Q17.061,16.861 16.755,16.363 z M16.636,13.739 Q16.237,13.885 15.476,14.047 Q14.716,14.21 14.423,14.287 Q14.131,14.363 13.865,14.586 Q13.599,14.808 13.599,15.207 Q13.599,15.619 13.912,15.908 Q14.224,16.197 14.729,16.197 Q15.267,16.197 15.722,15.961 Q16.177,15.725 16.39,15.353 Q16.636,14.941 16.636,13.998 z" fill="#000000"/>
        <path d="M16.755,16.363 Q16.097,16.874 15.483,17.13 Q14.868,17.386 14.104,17.386 Q13.407,17.386 12.879,17.11 Q12.35,16.834 12.065,16.363 Q11.779,15.891 11.779,15.34 Q11.779,14.596 12.251,14.071 Q12.722,13.546 13.546,13.366 Q13.719,13.327 14.403,13.187 Q15.088,13.048 15.576,12.931 Q16.064,12.815 16.636,12.649 Q16.602,11.931 16.347,11.596 Q16.091,11.26 15.287,11.26 Q14.596,11.26 14.247,11.453 Q13.898,11.646 13.649,12.031 Q13.4,12.416 13.297,12.539 Q13.194,12.662 12.855,12.662 Q12.55,12.662 12.327,12.466 Q12.105,12.27 12.105,11.965 Q12.105,11.486 12.443,11.035 Q12.782,10.583 13.5,10.29 Q14.217,9.998 15.287,9.998 Q16.483,9.998 17.167,10.28 Q17.851,10.563 18.134,11.174 Q18.416,11.785 18.416,12.795 Q18.416,13.433 18.413,13.878 Q18.41,14.323 18.403,14.868 Q18.403,15.38 18.572,15.934 Q18.742,16.489 18.742,16.648 Q18.742,16.928 18.479,17.157 Q18.217,17.386 17.885,17.386 Q17.606,17.386 17.333,17.123 Q17.061,16.861 16.755,16.363 z M16.636,13.739 Q16.237,13.885 15.476,14.047 Q14.716,14.21 14.423,14.287 Q14.131,14.363 13.865,14.586 Q13.599,14.808 13.599,15.207 Q13.599,15.619 13.912,15.908 Q14.224,16.197 14.729,16.197 Q15.267,16.197 15.722,15.961 Q16.177,15.725 16.39,15.353 Q16.636,14.941 16.636,13.998 z" fill-opacity="0" stroke="#3FCA00" stroke-width="4"/>
      </g>
      <g>
        <path d="M27.217,14.297 Q27.217,15.18 26.762,15.884 Q26.307,16.589 25.43,16.987 Q24.553,17.386 23.35,17.386 Q21.909,17.386 20.972,16.841 Q20.307,16.449 19.892,15.795 Q19.477,15.14 19.477,14.522 Q19.477,14.164 19.726,13.908 Q19.975,13.652 20.361,13.652 Q20.673,13.652 20.889,13.851 Q21.105,14.051 21.257,14.443 Q21.443,14.908 21.659,15.22 Q21.875,15.532 22.267,15.735 Q22.659,15.938 23.297,15.938 Q24.174,15.938 24.722,15.529 Q25.27,15.12 25.27,14.509 Q25.27,14.024 24.975,13.722 Q24.679,13.42 24.211,13.26 Q23.742,13.101 22.958,12.921 Q21.909,12.676 21.201,12.347 Q20.493,12.018 20.078,11.45 Q19.663,10.882 19.663,10.038 Q19.663,9.234 20.101,8.61 Q20.54,7.985 21.37,7.65 Q22.201,7.314 23.324,7.314 Q24.221,7.314 24.875,7.537 Q25.529,7.759 25.961,8.128 Q26.393,8.497 26.592,8.902 Q26.792,9.307 26.792,9.693 Q26.792,10.045 26.542,10.327 Q26.293,10.609 25.921,10.609 Q25.582,10.609 25.406,10.44 Q25.23,10.271 25.024,9.885 Q24.759,9.334 24.387,9.025 Q24.015,8.716 23.191,8.716 Q22.427,8.716 21.958,9.051 Q21.49,9.387 21.49,9.859 Q21.49,10.151 21.649,10.364 Q21.809,10.576 22.088,10.729 Q22.367,10.882 22.653,10.968 Q22.938,11.054 23.596,11.221 Q24.42,11.413 25.088,11.646 Q25.755,11.878 26.224,12.21 Q26.692,12.543 26.954,13.051 Q27.217,13.559 27.217,14.297 z" fill="#000000"/>
        <path d="M27.217,14.297 Q27.217,15.18 26.762,15.884 Q26.307,16.589 25.43,16.987 Q24.553,17.386 23.35,17.386 Q21.909,17.386 20.972,16.841 Q20.307,16.449 19.892,15.795 Q19.477,15.14 19.477,14.522 Q19.477,14.164 19.726,13.908 Q19.975,13.652 20.361,13.652 Q20.673,13.652 20.889,13.851 Q21.105,14.051 21.257,14.443 Q21.443,14.908 21.659,15.22 Q21.875,15.532 22.267,15.735 Q22.659,15.938 23.297,15.938 Q24.174,15.938 24.722,15.529 Q25.27,15.12 25.27,14.509 Q25.27,14.024 24.975,13.722 Q24.679,13.42 24.211,13.26 Q23.742,13.101 22.958,12.921 Q21.909,12.676 21.201,12.347 Q20.493,12.018 20.078,11.45 Q19.663,10.882 19.663,10.038 Q19.663,9.234 20.101,8.61 Q20.54,7.985 21.37,7.65 Q22.201,7.314 23.324,7.314 Q24.221,7.314 24.875,7.537 Q25.529,7.759 25.961,8.128 Q26.393,8.497 26.592,8.902 Q26.792,9.307 26.792,9.693 Q26.792,10.045 26.542,10.327 Q26.293,10.609 25.921,10.609 Q25.582,10.609 25.406,10.44 Q25.23,10.271 25.024,9.885 Q24.759,9.334 24.387,9.025 Q24.015,8.716 23.191,8.716 Q22.427,8.716 21.958,9.051 Q21.49,9.387 21.49,9.859 Q21.49,10.151 21.649,10.364 Q21.809,10.576 22.088,10.729 Q22.367,10.882 22.653,10.968 Q22.938,11.054 23.596,11.221 Q24.42,11.413 25.088,11.646 Q25.755,11.878 26.224,12.21 Q26.692,12.543 26.954,13.051 Q27.217,13.559 27.217,14.297 z" fill-opacity="0" stroke="#3FCA00" stroke-width="4"/>
      </g>
      <g>
        <path d="M34.988,13.699 Q34.988,14.509 34.735,15.194 Q34.483,15.878 34.004,16.369 Q33.526,16.861 32.862,17.123 Q32.197,17.386 31.367,17.386 Q30.543,17.386 29.885,17.12 Q29.228,16.854 28.746,16.359 Q28.264,15.865 28.015,15.19 Q27.766,14.516 27.766,13.699 Q27.766,12.875 28.019,12.191 Q28.271,11.506 28.743,11.021 Q29.214,10.536 29.885,10.274 Q30.556,10.011 31.367,10.011 Q32.191,10.011 32.862,10.277 Q33.533,10.543 34.011,11.035 Q34.489,11.526 34.739,12.204 Q34.988,12.881 34.988,13.699 z M33.167,13.699 Q33.167,12.589 32.679,11.971 Q32.191,11.353 31.367,11.353 Q30.835,11.353 30.43,11.629 Q30.025,11.905 29.806,12.443 Q29.586,12.981 29.586,13.699 Q29.586,14.41 29.802,14.941 Q30.018,15.473 30.42,15.755 Q30.822,16.037 31.367,16.037 Q32.191,16.037 32.679,15.416 Q33.167,14.795 33.167,13.699 z" fill="#000000"/>
        <path d="M34.988,13.699 Q34.988,14.509 34.735,15.194 Q34.483,15.878 34.004,16.369 Q33.526,16.861 32.862,17.123 Q32.197,17.386 31.367,17.386 Q30.543,17.386 29.885,17.12 Q29.228,16.854 28.746,16.359 Q28.264,15.865 28.015,15.19 Q27.766,14.516 27.766,13.699 Q27.766,12.875 28.019,12.191 Q28.271,11.506 28.743,11.021 Q29.214,10.536 29.885,10.274 Q30.556,10.011 31.367,10.011 Q32.191,10.011 32.862,10.277 Q33.533,10.543 34.011,11.035 Q34.489,11.526 34.739,12.204 Q34.988,12.881 34.988,13.699 z M33.167,13.699 Q33.167,12.589 32.679,11.971 Q32.191,11.353 31.367,11.353 Q30.835,11.353 30.43,11.629 Q30.025,11.905 29.806,12.443 Q29.586,12.981 29.586,13.699 Q29.586,14.41 29.802,14.941 Q30.018,15.473 30.42,15.755 Q30.822,16.037 31.367,16.037 Q32.191,16.037 32.679,15.416 Q33.167,14.795 33.167,13.699 z" fill-opacity="0" stroke="#3FCA00" stroke-width="4"/>
      </g>
      <g>
        <path d="M38.626,13.054 L37.935,13.054 L37.935,16.183 Q37.935,16.801 37.663,17.094 Q37.391,17.386 36.952,17.386 Q36.48,17.386 36.221,17.08 Q35.962,16.775 35.962,16.183 L35.962,8.689 Q35.962,8.052 36.248,7.766 Q36.534,7.48 37.171,7.48 L40.38,7.48 Q41.045,7.48 41.516,7.537 Q41.988,7.593 42.367,7.766 Q42.825,7.959 43.177,8.317 Q43.529,8.676 43.712,9.151 Q43.895,9.626 43.895,10.158 Q43.895,11.247 43.28,11.898 Q42.666,12.549 41.417,12.822 Q41.941,13.101 42.42,13.646 Q42.898,14.19 43.274,14.805 Q43.649,15.419 43.858,15.914 Q44.067,16.409 44.067,16.595 Q44.067,16.788 43.945,16.977 Q43.822,17.167 43.609,17.276 Q43.396,17.386 43.117,17.386 Q42.785,17.386 42.559,17.23 Q42.333,17.074 42.171,16.834 Q42.008,16.595 41.729,16.13 L40.938,14.815 Q40.513,14.091 40.178,13.712 Q39.842,13.333 39.497,13.194 Q39.151,13.054 38.626,13.054 z M39.756,8.962 L37.935,8.962 L37.935,11.639 L39.703,11.639 Q40.413,11.639 40.898,11.516 Q41.383,11.393 41.639,11.098 Q41.895,10.802 41.895,10.284 Q41.895,9.879 41.689,9.57 Q41.483,9.261 41.118,9.108 Q40.772,8.962 39.756,8.962 z" fill="#000000"/>
        <path d="M38.626,13.054 L37.935,13.054 L37.935,16.183 Q37.935,16.801 37.663,17.094 Q37.391,17.386 36.952,17.386 Q36.48,17.386 36.221,17.08 Q35.962,16.775 35.962,16.183 L35.962,8.689 Q35.962,8.052 36.248,7.766 Q36.534,7.48 37.171,7.48 L40.38,7.48 Q41.045,7.48 41.516,7.537 Q41.988,7.593 42.367,7.766 Q42.825,7.959 43.177,8.317 Q43.529,8.676 43.712,9.151 Q43.895,9.626 43.895,10.158 Q43.895,11.247 43.28,11.898 Q42.666,12.549 41.417,12.822 Q41.941,13.101 42.42,13.646 Q42.898,14.19 43.274,14.805 Q43.649,15.419 43.858,15.914 Q44.067,16.409 44.067,16.595 Q44.067,16.788 43.945,16.977 Q43.822,17.167 43.609,17.276 Q43.396,17.386 43.117,17.386 Q42.785,17.386 42.559,17.23 Q42.333,17.074 42.171,16.834 Q42.008,16.595 41.729,16.13 L40.938,14.815 Q40.513,14.091 40.178,13.712 Q39.842,13.333 39.497,13.194 Q39.151,13.054 38.626,13.054 z M39.756,8.962 L37.935,8.962 L37.935,11.639 L39.703,11.639 Q40.413,11.639 40.898,11.516 Q41.383,11.393 41.639,11.098 Q41.895,10.802 41.895,10.284 Q41.895,9.879 41.689,9.57 Q41.483,9.261 41.118,9.108 Q40.772,8.962 39.756,8.962 z" fill-opacity="0" stroke="#3FCA00" stroke-width="4"/>
      </g>
      <g>
        <path d="M46.882,11.041 L46.882,16.283 Q46.882,16.828 46.623,17.107 Q46.364,17.386 45.965,17.386 Q45.567,17.386 45.318,17.1 Q45.068,16.815 45.068,16.283 L45.068,11.094 Q45.068,10.556 45.318,10.284 Q45.567,10.011 45.965,10.011 Q46.364,10.011 46.623,10.284 Q46.882,10.556 46.882,11.041 z M45.985,9.168 Q45.607,9.168 45.338,8.935 Q45.068,8.703 45.068,8.277 Q45.068,7.892 45.344,7.643 Q45.62,7.394 45.985,7.394 Q46.337,7.394 46.61,7.62 Q46.882,7.846 46.882,8.277 Q46.882,8.696 46.616,8.932 Q46.351,9.168 45.985,9.168 z" fill="#000000"/>
        <path d="M46.882,11.041 L46.882,16.283 Q46.882,16.828 46.623,17.107 Q46.364,17.386 45.965,17.386 Q45.567,17.386 45.318,17.1 Q45.068,16.815 45.068,16.283 L45.068,11.094 Q45.068,10.556 45.318,10.284 Q45.567,10.011 45.965,10.011 Q46.364,10.011 46.623,10.284 Q46.882,10.556 46.882,11.041 z M45.985,9.168 Q45.607,9.168 45.338,8.935 Q45.068,8.703 45.068,8.277 Q45.068,7.892 45.344,7.643 Q45.62,7.394 45.985,7.394 Q46.337,7.394 46.61,7.62 Q46.882,7.846 46.882,8.277 Q46.882,8.696 46.616,8.932 Q46.351,9.168 45.985,9.168 z" fill-opacity="0" stroke="#3FCA00" stroke-width="4"/>
      </g>
      <g>
        <path d="M54.693,15.14 Q54.693,15.479 54.49,15.865 Q54.288,16.25 53.872,16.599 Q53.457,16.947 52.826,17.16 Q52.195,17.373 51.404,17.373 Q49.723,17.373 48.78,16.393 Q47.837,15.413 47.837,13.765 Q47.837,12.649 48.268,11.792 Q48.7,10.935 49.518,10.467 Q50.335,9.998 51.471,9.998 Q52.175,9.998 52.763,10.204 Q53.351,10.41 53.76,10.736 Q54.168,11.061 54.384,11.43 Q54.6,11.799 54.6,12.117 Q54.6,12.443 54.357,12.669 Q54.115,12.895 53.769,12.895 Q53.544,12.895 53.394,12.779 Q53.245,12.662 53.059,12.403 Q52.726,11.898 52.364,11.646 Q52.002,11.393 51.444,11.393 Q50.64,11.393 50.149,12.021 Q49.657,12.649 49.657,13.739 Q49.657,14.25 49.783,14.679 Q49.909,15.107 50.149,15.409 Q50.388,15.712 50.727,15.868 Q51.065,16.024 51.471,16.024 Q52.016,16.024 52.404,15.772 Q52.793,15.519 53.092,15.001 Q53.258,14.695 53.451,14.522 Q53.643,14.35 53.922,14.35 Q54.254,14.35 54.474,14.602 Q54.693,14.855 54.693,15.14 z" fill="#000000"/>
        <path d="M54.693,15.14 Q54.693,15.479 54.49,15.865 Q54.288,16.25 53.872,16.599 Q53.457,16.947 52.826,17.16 Q52.195,17.373 51.404,17.373 Q49.723,17.373 48.78,16.393 Q47.837,15.413 47.837,13.765 Q47.837,12.649 48.268,11.792 Q48.7,10.935 49.518,10.467 Q50.335,9.998 51.471,9.998 Q52.175,9.998 52.763,10.204 Q53.351,10.41 53.76,10.736 Q54.168,11.061 54.384,11.43 Q54.6,11.799 54.6,12.117 Q54.6,12.443 54.357,12.669 Q54.115,12.895 53.769,12.895 Q53.544,12.895 53.394,12.779 Q53.245,12.662 53.059,12.403 Q52.726,11.898 52.364,11.646 Q52.002,11.393 51.444,11.393 Q50.64,11.393 50.149,12.021 Q49.657,12.649 49.657,13.739 Q49.657,14.25 49.783,14.679 Q49.909,15.107 50.149,15.409 Q50.388,15.712 50.727,15.868 Q51.065,16.024 51.471,16.024 Q52.016,16.024 52.404,15.772 Q52.793,15.519 53.092,15.001 Q53.258,14.695 53.451,14.522 Q53.643,14.35 53.922,14.35 Q54.254,14.35 54.474,14.602 Q54.693,14.855 54.693,15.14 z" fill-opacity="0" stroke="#3FCA00" stroke-width="4"/>
      </g>
      <g>
        <path d="M57.142,8.417 L57.142,11.108 Q57.488,10.709 57.817,10.476 Q58.145,10.244 58.544,10.128 Q58.943,10.011 59.401,10.011 Q60.092,10.011 60.627,10.304 Q61.162,10.596 61.467,11.154 Q61.66,11.48 61.726,11.882 Q61.793,12.284 61.793,12.808 L61.793,16.283 Q61.793,16.828 61.544,17.107 Q61.295,17.386 60.883,17.386 Q59.986,17.386 59.986,16.283 L59.986,13.22 Q59.986,12.35 59.727,11.882 Q59.468,11.413 58.743,11.413 Q58.258,11.413 57.87,11.689 Q57.481,11.965 57.288,12.443 Q57.142,12.848 57.142,13.885 L57.142,16.283 Q57.142,16.821 56.9,17.104 Q56.657,17.386 56.225,17.386 Q55.329,17.386 55.329,16.283 L55.329,8.417 Q55.329,7.866 55.564,7.59 Q55.8,7.314 56.225,7.314 Q56.657,7.314 56.9,7.593 Q57.142,7.872 57.142,8.417 z" fill="#000000"/>
        <path d="M57.142,8.417 L57.142,11.108 Q57.488,10.709 57.817,10.476 Q58.145,10.244 58.544,10.128 Q58.943,10.011 59.401,10.011 Q60.092,10.011 60.627,10.304 Q61.162,10.596 61.467,11.154 Q61.66,11.48 61.726,11.882 Q61.793,12.284 61.793,12.808 L61.793,16.283 Q61.793,16.828 61.544,17.107 Q61.295,17.386 60.883,17.386 Q59.986,17.386 59.986,16.283 L59.986,13.22 Q59.986,12.35 59.727,11.882 Q59.468,11.413 58.743,11.413 Q58.258,11.413 57.87,11.689 Q57.481,11.965 57.288,12.443 Q57.142,12.848 57.142,13.885 L57.142,16.283 Q57.142,16.821 56.9,17.104 Q56.657,17.386 56.225,17.386 Q55.329,17.386 55.329,16.283 L55.329,8.417 Q55.329,7.866 55.564,7.59 Q55.8,7.314 56.225,7.314 Q56.657,7.314 56.9,7.593 Q57.142,7.872 57.142,8.417 z" fill-opacity="0" stroke="#3FCA00" stroke-width="4"/>
      </g>
    </g>
    <path d="M8.305,13.447 L6.446,13.447 L6.446,16.284 Q6.446,16.892 6.159,17.206 Q5.872,17.521 5.434,17.521 Q4.976,17.521 4.696,17.21 Q4.415,16.899 4.415,16.297 L4.415,8.573 Q4.415,7.903 4.723,7.616 Q5.031,7.329 5.701,7.329 L8.305,7.329 Q9.46,7.329 10.082,7.506 Q10.698,7.677 11.145,8.074 Q11.593,8.47 11.826,9.044 Q12.058,9.619 12.058,10.336 Q12.058,11.868 11.115,12.657 Q10.171,13.447 8.305,13.447 z M7.813,8.853 L6.446,8.853 L6.446,11.915 L7.813,11.915 Q8.531,11.915 9.013,11.765 Q9.495,11.615 9.747,11.273 Q10,10.931 10,10.377 Q10,9.714 9.611,9.297 Q9.173,8.853 7.813,8.853 z" fill="#FFFFFF"/>
    <path d="M17.007,16.468 Q16.33,16.995 15.698,17.258 Q15.066,17.521 14.28,17.521 Q13.562,17.521 13.018,17.237 Q12.475,16.954 12.181,16.468 Q11.887,15.983 11.887,15.415 Q11.887,14.65 12.372,14.11 Q12.858,13.57 13.705,13.385 Q13.883,13.344 14.587,13.201 Q15.291,13.057 15.794,12.937 Q16.296,12.818 16.884,12.647 Q16.85,11.909 16.587,11.563 Q16.323,11.218 15.496,11.218 Q14.785,11.218 14.426,11.416 Q14.068,11.615 13.811,12.011 Q13.555,12.408 13.449,12.534 Q13.343,12.661 12.994,12.661 Q12.68,12.661 12.451,12.459 Q12.222,12.257 12.222,11.943 Q12.222,11.451 12.571,10.986 Q12.919,10.521 13.657,10.22 Q14.396,9.919 15.496,9.919 Q16.727,9.919 17.431,10.21 Q18.135,10.5 18.426,11.129 Q18.716,11.758 18.716,12.797 Q18.716,13.454 18.713,13.912 Q18.709,14.37 18.702,14.93 Q18.702,15.456 18.877,16.027 Q19.051,16.598 19.051,16.762 Q19.051,17.049 18.781,17.285 Q18.511,17.521 18.169,17.521 Q17.882,17.521 17.602,17.251 Q17.322,16.981 17.007,16.468 z M16.884,13.768 Q16.474,13.918 15.691,14.086 Q14.908,14.253 14.608,14.332 Q14.307,14.411 14.033,14.64 Q13.76,14.869 13.76,15.279 Q13.76,15.703 14.081,16 Q14.403,16.297 14.922,16.297 Q15.476,16.297 15.944,16.055 Q16.412,15.812 16.631,15.429 Q16.884,15.005 16.884,14.035 z" fill="#FFFFFF"/>
    <path d="M27.555,14.342 Q27.555,15.251 27.086,15.976 Q26.618,16.701 25.716,17.111 Q24.814,17.521 23.576,17.521 Q22.093,17.521 21.129,16.96 Q20.445,16.557 20.018,15.884 Q19.591,15.21 19.591,14.575 Q19.591,14.205 19.847,13.942 Q20.104,13.679 20.5,13.679 Q20.821,13.679 21.043,13.884 Q21.266,14.089 21.423,14.493 Q21.614,14.971 21.836,15.292 Q22.059,15.614 22.462,15.822 Q22.865,16.031 23.522,16.031 Q24.424,16.031 24.988,15.61 Q25.552,15.19 25.552,14.561 Q25.552,14.062 25.248,13.751 Q24.943,13.44 24.461,13.276 Q23.98,13.112 23.173,12.927 Q22.093,12.674 21.365,12.336 Q20.637,11.997 20.21,11.413 Q19.782,10.829 19.782,9.96 Q19.782,9.133 20.233,8.491 Q20.685,7.848 21.539,7.503 Q22.394,7.158 23.549,7.158 Q24.472,7.158 25.145,7.387 Q25.818,7.616 26.263,7.995 Q26.707,8.374 26.912,8.791 Q27.117,9.208 27.117,9.605 Q27.117,9.967 26.861,10.258 Q26.605,10.548 26.222,10.548 Q25.873,10.548 25.692,10.374 Q25.511,10.2 25.299,9.803 Q25.025,9.236 24.643,8.918 Q24.26,8.6 23.412,8.6 Q22.626,8.6 22.144,8.945 Q21.662,9.29 21.662,9.776 Q21.662,10.077 21.826,10.295 Q21.99,10.514 22.277,10.671 Q22.564,10.829 22.858,10.917 Q23.152,11.006 23.829,11.177 Q24.677,11.375 25.364,11.615 Q26.051,11.854 26.533,12.196 Q27.015,12.538 27.285,13.06 Q27.555,13.583 27.555,14.342 z" fill="#FFFFFF"/>
    <path d="M35.334,13.727 Q35.334,14.561 35.074,15.265 Q34.814,15.969 34.322,16.475 Q33.83,16.981 33.146,17.251 Q32.463,17.521 31.608,17.521 Q30.761,17.521 30.084,17.247 Q29.407,16.974 28.911,16.465 Q28.416,15.955 28.16,15.262 Q27.903,14.568 27.903,13.727 Q27.903,12.879 28.163,12.175 Q28.423,11.471 28.908,10.972 Q29.393,10.473 30.084,10.203 Q30.774,9.933 31.608,9.933 Q32.456,9.933 33.146,10.206 Q33.837,10.48 34.329,10.986 Q34.821,11.492 35.077,12.189 Q35.334,12.886 35.334,13.727 z M33.461,13.727 Q33.461,12.585 32.958,11.95 Q32.456,11.314 31.608,11.314 Q31.061,11.314 30.644,11.598 Q30.227,11.881 30.002,12.435 Q29.776,12.989 29.776,13.727 Q29.776,14.458 29.998,15.005 Q30.221,15.552 30.634,15.843 Q31.048,16.133 31.608,16.133 Q32.456,16.133 32.958,15.494 Q33.461,14.855 33.461,13.727 z" fill="#FFFFFF"/>
    <path d="M38.861,13.064 L38.15,13.064 L38.15,16.284 Q38.15,16.919 37.87,17.22 Q37.589,17.521 37.138,17.521 Q36.653,17.521 36.386,17.206 Q36.12,16.892 36.12,16.284 L36.12,8.573 Q36.12,7.916 36.414,7.622 Q36.708,7.329 37.364,7.329 L40.666,7.329 Q41.349,7.329 41.835,7.387 Q42.32,7.445 42.71,7.622 Q43.181,7.821 43.544,8.19 Q43.906,8.559 44.094,9.048 Q44.282,9.537 44.282,10.083 Q44.282,11.204 43.65,11.874 Q43.017,12.544 41.732,12.825 Q42.272,13.112 42.764,13.672 Q43.256,14.233 43.643,14.865 Q44.029,15.497 44.244,16.007 Q44.46,16.516 44.46,16.707 Q44.46,16.906 44.333,17.1 Q44.207,17.295 43.988,17.408 Q43.769,17.521 43.482,17.521 Q43.14,17.521 42.908,17.36 Q42.675,17.2 42.508,16.954 Q42.34,16.707 42.053,16.229 L41.24,14.875 Q40.802,14.13 40.457,13.741 Q40.112,13.351 39.756,13.207 Q39.401,13.064 38.861,13.064 z M40.023,8.853 L38.15,8.853 L38.15,11.608 L39.968,11.608 Q40.7,11.608 41.199,11.481 Q41.698,11.355 41.961,11.051 Q42.224,10.746 42.224,10.213 Q42.224,9.796 42.012,9.478 Q41.8,9.161 41.424,9.003 Q41.069,8.853 40.023,8.853 z" fill="#FFFFFF"/>
    <path d="M47.139,10.993 L47.139,16.386 Q47.139,16.947 46.872,17.234 Q46.606,17.521 46.196,17.521 Q45.786,17.521 45.529,17.227 Q45.273,16.933 45.273,16.386 L45.273,11.047 Q45.273,10.494 45.529,10.213 Q45.786,9.933 46.196,9.933 Q46.606,9.933 46.872,10.213 Q47.139,10.494 47.139,10.993 z M46.216,9.065 Q45.827,9.065 45.55,8.826 Q45.273,8.586 45.273,8.149 Q45.273,7.752 45.557,7.496 Q45.84,7.24 46.216,7.24 Q46.579,7.24 46.859,7.472 Q47.139,7.704 47.139,8.149 Q47.139,8.579 46.866,8.822 Q46.592,9.065 46.216,9.065 z" fill="#FFFFFF"/>
    <path d="M54.959,15.21 Q54.959,15.559 54.751,15.955 Q54.542,16.352 54.115,16.711 Q53.688,17.07 53.038,17.288 Q52.389,17.507 51.575,17.507 Q49.846,17.507 48.875,16.499 Q47.905,15.491 47.905,13.795 Q47.905,12.647 48.349,11.765 Q48.793,10.883 49.634,10.401 Q50.475,9.919 51.644,9.919 Q52.368,9.919 52.973,10.131 Q53.578,10.343 53.999,10.678 Q54.419,11.013 54.641,11.392 Q54.864,11.772 54.864,12.1 Q54.864,12.435 54.614,12.667 Q54.364,12.9 54.009,12.9 Q53.777,12.9 53.623,12.78 Q53.469,12.661 53.278,12.394 Q52.936,11.874 52.563,11.615 Q52.191,11.355 51.616,11.355 Q50.789,11.355 50.283,12.001 Q49.778,12.647 49.778,13.768 Q49.778,14.294 49.907,14.735 Q50.037,15.176 50.283,15.487 Q50.53,15.798 50.878,15.959 Q51.227,16.12 51.644,16.12 Q52.204,16.12 52.604,15.86 Q53.004,15.6 53.312,15.067 Q53.483,14.752 53.681,14.575 Q53.879,14.397 54.166,14.397 Q54.508,14.397 54.734,14.657 Q54.959,14.916 54.959,15.21 z" fill="#FFFFFF"/>
    <path d="M57.263,8.292 L57.263,11.061 Q57.618,10.651 57.957,10.412 Q58.295,10.172 58.705,10.053 Q59.115,9.933 59.587,9.933 Q60.298,9.933 60.848,10.234 Q61.398,10.535 61.713,11.109 Q61.911,11.444 61.98,11.857 Q62.048,12.271 62.048,12.811 L62.048,16.386 Q62.048,16.947 61.792,17.234 Q61.535,17.521 61.111,17.521 Q60.189,17.521 60.189,16.386 L60.189,13.235 Q60.189,12.339 59.922,11.857 Q59.655,11.375 58.91,11.375 Q58.411,11.375 58.011,11.659 Q57.611,11.943 57.413,12.435 Q57.263,12.852 57.263,13.918 L57.263,16.386 Q57.263,16.94 57.013,17.23 Q56.764,17.521 56.319,17.521 Q55.397,17.521 55.397,16.386 L55.397,8.292 Q55.397,7.725 55.639,7.441 Q55.882,7.158 56.319,7.158 Q56.764,7.158 57.013,7.445 Q57.263,7.732 57.263,8.292 z" fill="#FFFFFF"/>
  </g>
</svg>
